<?xml version="1.0" encoding="UTF-8" standalone="no"?>
<svg
   version="1.1"
   id="Layer_1"
   x="0px"
   y="0px"
   width="100%"
   viewBox="0 0 1024 1024"
   enable-background="new 0 0 1024 1024"
   xml:space="preserve"
   sodipodi:docname="effessdev-circ.svg"
   inkscape:version="1.4.2 (f4327f4, 2025-05-13)"
   inkscape:export-filename="faseehfs.png"
   inkscape:export-xdpi="96"
   inkscape:export-ydpi="96"
   xmlns:inkscape="http://www.inkscape.org/namespaces/inkscape"
   xmlns:sodipodi="http://sodipodi.sourceforge.net/DTD/sodipodi-0.dtd"
   xmlns="http://www.w3.org/2000/svg"
   xmlns:svg="http://www.w3.org/2000/svg"><defs
   id="defs5" /><sodipodi:namedview
   id="namedview5"
   pagecolor="#ffffff"
   bordercolor="#000000"
   borderopacity="0.25"
   inkscape:showpageshadow="2"
   inkscape:pageopacity="0.0"
   inkscape:pagecheckerboard="0"
   inkscape:deskcolor="#d1d1d1"
   showgrid="false"
   inkscape:zoom="0.5"
   inkscape:cx="387"
   inkscape:cy="593"
   inkscape:window-width="1920"
   inkscape:window-height="991"
   inkscape:window-x="-9"
   inkscape:window-y="-9"
   inkscape:window-maximized="1"
   inkscape:current-layer="Layer_1" />

<circle
   style="fill:#045a87;stroke-width:0.989761;fill-opacity:1"
   id="path1"
   cx="512"
   cy="512"
   r="512" /><path
   fill="#fddd59"
   opacity="1"
   stroke="none"
   d="m 320.98696,277.36362 c 23.39417,0.22967 45.79768,3.89392 68.25071,8.93658 0,20.63723 0,41.0898 0,61.67774 -9.49779,-1.994 -18.77921,-4.85609 -28.2447,-5.73409 -18.09409,-1.67833 -36.44002,-4.17308 -54.41585,-2.81477 -31.43866,2.37561 -49.90579,21.42396 -52.27398,52.9097 -1.5458,20.55186 -0.29149,41.31428 -0.29149,62.58178 41.55983,0 83.35069,0 125.47622,0 0,20.28284 0,39.96855 0,60.12581 -41.87863,0 -83.52612,0 -125.82057,0 0,71.86881 0,143.27224 0,215.0648 -26.29752,0 -51.94636,0 -78.05862,0 0,-71.5804 0,-142.87016 0,-214.77497 -31.18931,0 -61.9265,0 -93.0401,0 0,-20.15983 0,-39.70999 0,-59.84134 30.54968,0 61.29494,0 93.01176,0 0,-2.56516 -0.0488,-4.56389 0.007,-6.55964 0.66568,-23.63318 -0.53055,-47.50267 2.41386,-70.84958 6.19031,-49.08473 34.05912,-80.77172 82.05878,-94.31428 19.8015,-5.58682 40.00606,-6.74448 60.92655,-6.40774 z"
   id="path2"
   style="stroke-width:1.05208;fill:#fce168;fill-opacity:1" />
<path
   fill="#38b5fe"
   opacity="1"
   stroke="none"
   d="m 602.30871,599.54961 c 27.40525,7.72322 54.92382,11.52522 82.98283,11.07796 11.45851,-0.18268 22.73072,-1.69178 33.33306,-6.41898 14.28783,-6.37029 20.78438,-18.21671 17.97,-32.49004 -1.33354,-6.76321 -4.85844,-12.29314 -10.7562,-15.51104 -8.73356,-4.76527 -17.61567,-9.55545 -26.95952,-12.84252 -18.66866,-6.56736 -37.79086,-11.83459 -56.54229,-18.18062 -16.31367,-5.52106 -31.82118,-12.65314 -45.36819,-23.77867 -30.3598,-24.93313 -33.75498,-77.21499 -10.88711,-107.12925 16.26242,-21.27344 38.51525,-32.54397 63.70755,-39.07414 29.44533,-7.63262 59.41381,-7.46281 89.35865,-4.81683 16.89513,1.49295 33.652,4.61487 50.43161,7.25434 1.74843,0.27502 4.60601,2.23801 4.62546,3.45498 0.29693,18.55493 0.20651,37.11608 0.20651,56.46745 -2.68709,-0.66073 -4.80816,-1.08613 -6.87168,-1.70401 -31.47821,-9.42538 -63.56749,-14.22975 -96.47775,-12.64688 -9.39639,0.45194 -18.28401,2.89866 -26.56044,7.50885 -17.4728,9.73278 -19.27478,31.38088 -3.37253,43.47708 12.66193,9.63145 27.88845,13.72119 42.62444,18.7298 19.06903,6.48138 38.45207,12.09825 57.29616,19.164 15.88214,5.95512 30.25956,14.86952 41.05569,28.41426 13.65468,17.13104 16.3615,37.333 14.64429,58.2225 -3.30151,40.16055 -28.25396,62.93584 -63.61143,76.50261 -22.69064,8.70654 -46.57348,11.48932 -70.70817,11.72839 -35.70865,0.35395 -71.06096,-3.11908 -105.90406,-11.17924 -1.67915,-0.38836 -3.33208,-0.88981 -5.17015,-1.38522 0,-21.71209 0,-43.21015 0,-65.26116 10.41425,3.5009 20.48496,6.88633 30.95327,10.41638 z"
   id="path3"
   style="stroke-width:1.05208;fill:#82d1fe;fill-opacity:1" />
<path
   fill="#fdbc59"
   opacity="1"
   stroke="none"
   d="M 527.81577,760.01114 C 490.37315,721.75088 460.18364,679.08752 441.0084,629.18946 424.10175,585.19489 417.56395,539.5658 419.73841,492.53033 c 1.60827,-34.78904 8.36298,-68.44325 20.57849,-101.03398 15.81287,-42.18843 38.94528,-80.0452 69.05516,-113.38904 15.83121,-17.53155 33.31597,-33.57162 50.09862,-50.24021 2.0907,-2.07648 4.45585,-3.87659 6.30637,-5.47091 14.06238,13.93364 27.81191,27.55717 41.96463,41.58023 -3.10345,2.90905 -6.42345,5.97172 -9.68996,9.09041 -42.92311,40.98037 -76.23124,88.20669 -93.97562,145.42734 -13.25033,42.72856 -16.33933,86.32966 -9.65534,130.49764 10.58762,69.96315 42.52163,129.17064 91.47522,179.69105 7.06535,7.29138 13.62708,15.07067 21.10911,23.38814 -13.58873,12.68248 -28.53541,26.63223 -44.19788,41.25014 -10.64773,-10.1321 -22.68814,-21.58951 -34.99144,-33.31 z"
   id="path4"
   style="stroke-width:1.05208;fill:#fdc268;fill-opacity:1" />
<path
   fill="#fdbc59"
   opacity="1"
   stroke="none"
   d="m 828.02283,339.40455 c -18.35305,-28.06851 -40.45728,-52.38781 -65.12354,-74.61027 14.74093,-14.2006 29.18988,-28.11999 44.20527,-42.58499 3.92194,3.40114 9.25672,7.86452 14.4133,12.52503 41.51573,37.52242 76.44495,80.06396 99.71827,131.4213 24.65483,54.40587 33.4711,111.51185 28.11136,170.79583 -7.43795,82.27359 -42.06144,152.21607 -98.07901,212.00894 -14.58484,15.56775 -30.41908,29.96488 -45.31978,44.54765 -14.45793,-14.5888 -28.08982,-28.34399 -42.23947,-42.62167 2.57819,-2.4178 6.10913,-5.69369 9.6018,-9.00996 43.07227,-40.8976 76.05214,-88.32051 93.59616,-145.59348 13.68203,-44.66543 16.55857,-90.0873 8.78449,-136.17542 -7.33416,-43.47971 -23.39361,-83.50789 -47.66885,-120.70296 z"
   id="path5"
   style="stroke-width:1.05208;fill:#fdc268;fill-opacity:1" />
</svg>
